<?xml version="1.0"?>
<svg xmlns="http://www.w3.org/2000/svg" viewBox="0 0 330.82 156.35"><title>Asset 9</title><g id="Laag_2" data-name="Laag 2"><g id="Isolatiemodus"><path d="M19,93.84C27.22,93.84,32,98,32,105.08c0,7.41-4.78,11.67-13,11.67H10.19v10.57H6.37V93.84Zm-8.76,19.23H18.8c6,0,9.52-2.68,9.52-7.89s-3.49-7.66-9.52-7.66H10.19Z" fill="#4e5456"/><path d="M40.81,118.86l-3.73,8.46H33L48,93.84h4l15,33.48H62.81l-3.73-8.46ZM49.9,98.19l-7.46,17h15Z" fill="#4e5456"/><path d="M88.61,116.65c-.72,0-1.49.1-2.25.1h-8.9v10.57H73.64V93.84H86.36c8.37,0,13.2,4.11,13.2,11.24,0,5.55-2.68,9.28-7.51,10.86l7.85,11.38H95.54Zm-2.25-3.58c6.07,0,9.52-2.68,9.52-7.89s-3.45-7.66-9.52-7.66h-8.9v15.55Z" fill="#4e5456"/><path d="M119.63,111.44l-6.51,7.13v8.75H109.3V93.84h3.82v19.28l18-19.28h4.54L122.4,108.38l14.26,18.94H132Z" fill="#4e5456"/><path d="M143.68,127.32V93.84h3.83v33.48Z" fill="#4e5456"/><path d="M182.71,127.32l-20.09-26.88v26.88h-3.83V93.84h4l20.09,26.93V93.84h3.78v33.48Z" fill="#4e5456"/><path d="M225.3,111v12.15a20.69,20.69,0,0,1-12.44,4.4,17.11,17.11,0,0,1-17.45-16.93c0-9.42,7.79-16.84,17.65-16.84a19,19,0,0,1,12.34,4.59l-2.2,2.88a15.4,15.4,0,0,0-10.14-3.88,13.29,13.29,0,1,0,0,26.55,16,16,0,0,0,8.8-2.82V111Z" fill="#4e5456"/><rect x="242.62" y="60.43" width="88.2" height="3.08" fill="#4e5456"/><path d="M262.86,47.6l.62.5.75-.27L323.12,26.4a5.33,5.33,0,0,0,3.49-5,5.38,5.38,0,0,0-.32-1.8,5.31,5.31,0,0,0-5-3.5,5.41,5.41,0,0,0-1.82.32L300,23.51,267.17.42l-.6-.42-.69.25-6.6,2.4-2.09.76L258.77,5,283.58,29.5l-19.34,7L257,31.65l-.59-.4-.67.24-6.41,2.34-2.34.84,1.93,1.57Z" fill="#4e5456"/><path d="M289.51,79.22c12.28,0,19.35,6,19.35,16.74,0,11.26-7.07,17.78-19.35,17.78h-8.72v13.52H268.58v-48Zm-8.72,24.91h8.1c5.35,0,8.44-2.68,8.44-7.75s-3.09-7.55-8.44-7.55h-8.1Z" fill="#4e5456"/><path d="M35.34,76.41c-3.18,4.1-8.12,5.85-13.19,5.85C8.45,82.26,0,71.61,0,58.42,0,40.75,12.41,33.67,22.87,33.67c11.82,0,19.29,6.43,21.37,17.34H30.53a6.78,6.78,0,0,0-6.75-5.78c-9.81,0-9.49,10.33-9.49,13.51,0,4.36,1.76,12,10.46,12,3.31,0,6.69-1.69,7.41-5.14h-6.3V55.62h19V81.16h-9Z" fill="#8abd23"/><path d="M49.8,34.77H77c8.12,0,15.14,4.48,15.14,13.25,0,4.81-2.21,9.88-7,11.63,3.9,1.5,6.31,5.78,6.83,11.57.19,2.27.26,7.79,1.56,9.94H79.29A34.2,34.2,0,0,1,78.12,74c-.39-4.42-.78-9-6.43-9h-7.6V81.16H49.8ZM64.09,55h7.47c2.67,0,6.3-.45,6.3-4.61,0-2.93-1.62-4.61-7.08-4.61H64.09Z" fill="#8abd23"/><path d="M96.25,34.77h38.4V46.66H110.54v5.78h21.9V63.49h-21.9v5.78h24.82V81.16H96.25Z" fill="#8abd23"/><path d="M139.81,34.77H178.2V46.66H154.1v5.78H176V63.49H154.1v5.78h24.82V81.16H139.81Z" fill="#8abd23"/><path d="M183.4,34.77H198l13.51,24.82h.13V34.77h13.52V81.16h-13.9L197,55.82h-.13V81.16H183.4Z" fill="#8abd23"/><path d="M19.81,153.91v2.44H6.57v-1.93l9.14-11.16h-9v-2.44h12.8v1.93l-9.14,11.16Z" fill="#4e5456"/><path d="M45.83,152.75H38.07l-1.53,3.6h-3l7-15.53h2.84l7,15.53h-3Zm-.95-2.26L42,143.7,39,150.49Z" fill="#4e5456"/><path d="M79.06,140.82,72.3,156.35H69.46l-6.79-15.53H65.8l5.17,12,5.21-12Z" fill="#4e5456"/><path d="M105.66,153.93v2.42H94V140.82h11.34v2.41H96.9v4h7.5v2.38H96.9v4.28Z" fill="#4e5456"/><path d="M136,140.82v15.53h-2.38l-8.56-10.52v10.52h-2.86V140.82h2.37l8.56,10.51V140.82Z" fill="#4e5456"/><path d="M156.62,143.26h-5.15v-2.44h13.18v2.44H159.5v13.09h-2.88Z" fill="#4e5456"/><path d="M191.78,153.93v2.42H180.13V140.82h11.34v2.41H183v4h7.5v2.38H183v4.28Z" fill="#4e5456"/><path d="M222.57,156.35l0-10.3-5.11,8.52h-1.28l-5.11-8.38v10.16H208.3V140.82h2.38l6.16,10.29,6.06-10.29h2.37l0,15.53Z" fill="#4e5456"/></g></g></svg>